  0
SECTION
  2
HEADER
  9
$ACADVER
  1
AC1024
  9
$ACADMAINTVER
 70
6
  9
$DWGCODEPAGE
  3
ANSI_1252
  9
$LASTSAVEDBY
  1
ezdxf
  9
$INSBASE
 10
0.0
 20
0.0
 30
0.0
  9
$EXTMIN
 10
1e+20
 20
1e+20
 30
1e+20
  9
$EXTMAX
 10
-1e+20
 20
-1e+20
 30
-1e+20
  9
$LIMMIN
 10
0.0
 20
0.0
  9
$LIMMAX
 10
420.0
 20
297.0
  9
$ORTHOMODE
 70
0
  9
$REGENMODE
 70
1
  9
$FILLMODE
 70
1
  9
$QTEXTMODE
 70
0
  9
$MIRRTEXT
 70
1
  9
$LTSCALE
 40
1.0
  9
$ATTMODE
 70
1
  9
$TEXTSIZE
 40
2.5
  9
$TRACEWID
 40
1.0
  9
$TEXTSTYLE
  7
Standard
  9
$CLAYER
  8
0
  9
$CELTYPE
  6
ByLayer
  9
$CECOLOR
 62
256
  9
$CELTSCALE
 40
1.0
  9
$DISPSILH
 70
0
  9
$DIMSCALE
 40
1.0
  9
$DIMASZ
 40
2.5
  9
$DIMEXO
 40
0.625
  9
$DIMDLI
 40
3.75
  9
$DIMRND
 40
0.0
  9
$DIMDLE
 40
0.0
  9
$DIMEXE
 40
1.25
  9
$DIMTP
 40
0.0
  9
$DIMTM
 40
0.0
  9
$DIMTXT
 40
2.5
  9
$DIMCEN
 40
2.5
  9
$DIMTSZ
 40
0.0
  9
$DIMTOL
 70
0
  9
$DIMLIM
 70
0
  9
$DIMTIH
 70
0
  9
$DIMTOH
 70
0
  9
$DIMSE1
 70
0
  9
$DIMSE2
 70
0
  9
$DIMTAD
 70
1
  9
$DIMZIN
 70
8
  9
$DIMBLK
  1

  9
$DIMASO
 70
1
  9
$DIMSHO
 70
1
  9
$DIMPOST
  1

  9
$DIMAPOST
  1

  9
$DIMALT
 70
0
  9
$DIMALTD
 70
3
  9
$DIMALTF
 40
0.03937007874
  9
$DIMLFAC
 40
1.0
  9
$DIMTOFL
 70
1
  9
$DIMTVP
 40
0.0
  9
$DIMTIX
 70
0
  9
$DIMSOXD
 70
0
  9
$DIMSAH
 70
0
  9
$DIMBLK1
  1

  9
$DIMBLK2
  1

  9
$DIMSTYLE
  2
ISO-25
  9
$DIMCLRD
 70
0
  9
$DIMCLRE
 70
0
  9
$DIMCLRT
 70
0
  9
$DIMTFAC
 40
1.0
  9
$DIMGAP
 40
0.625
  9
$DIMJUST
 70
0
  9
$DIMSD1
 70
0
  9
$DIMSD2
 70
0
  9
$DIMTOLJ
 70
0
  9
$DIMTZIN
 70
8
  9
$DIMALTZ
 70
0
  9
$DIMALTTZ
 70
0
  9
$DIMUPT
 70
0
  9
$DIMDEC
 70
2
  9
$DIMTDEC
 70
2
  9
$DIMALTU
 70
2
  9
$DIMALTTD
 70
3
  9
$DIMTXSTY
  7
Standard
  9
$DIMAUNIT
 70
0
  9
$DIMADEC
 70
0
  9
$DIMALTRND
 40
0.0
  9
$DIMAZIN
 70
0
  9
$DIMDSEP
 70
44
  9
$DIMATFIT
 70
3
  9
$DIMFRAC
 70
0
  9
$DIMLDRBLK
  1

  9
$DIMLUNIT
 70
2
  9
$DIMLWD
 70
-2
  9
$DIMLWE
 70
-2
  9
$DIMTMOVE
 70
0
  9
$DIMFXL
 40
1.0
  9
$DIMFXLON
 70
0
  9
$DIMJOGANG
 40
0.785398163397
  9
$DIMTFILL
 70
0
  9
$DIMTFILLCLR
 70
0
  9
$DIMARCSYM
 70
0
  9
$DIMLTYPE
  6

  9
$DIMLTEX1
  6

  9
$DIMLTEX2
  6

  9
$DIMTXTDIRECTION
 70
0
  9
$LUNITS
 70
2
  9
$LUPREC
 70
4
  9
$SKETCHINC
 40
1.0
  9
$FILLETRAD
 40
10.0
  9
$AUNITS
 70
0
  9
$AUPREC
 70
2
  9
$MENU
  1
.
  9
$ELEVATION
 40
0.0
  9
$PELEVATION
 40
0.0
  9
$THICKNESS
 40
0.0
  9
$LIMCHECK
 70
0
  9
$CHAMFERA
 40
0.0
  9
$CHAMFERB
 40
0.0
  9
$CHAMFERC
 40
0.0
  9
$CHAMFERD
 40
0.0
  9
$SKPOLY
 70
0
  9
$TDCREATE
 40
2461122.5256481483
  9
$TDUCREATE
 40
2458532.153996898
  9
$TDUPDATE
 40
2461122.5256481483
  9
$TDUUPDATE
 40
2458532.1544311
  9
$TDINDWG
 40
0.0
  9
$TDUSRTIMER
 40
0.0
  9
$USRTIMER
 70
1
  9
$ANGBASE
 50
0.0
  9
$ANGDIR
 70
0
  9
$PDMODE
 70
0
  9
$PDSIZE
 40
0.0
  9
$PLINEWID
 40
0.0
  9
$SPLFRAME
 70
0
  9
$SPLINETYPE
 70
6
  9
$SPLINESEGS
 70
8
  9
$HANDSEED
  5
65
  9
$SURFTAB1
 70
6
  9
$SURFTAB2
 70
6
  9
$SURFTYPE
 70
6
  9
$SURFU
 70
6
  9
$SURFV
 70
6
  9
$UCSBASE
  2

  9
$UCSNAME
  2

  9
$UCSORG
 10
0.0
 20
0.0
 30
0.0
  9
$UCSXDIR
 10
1.0
 20
0.0
 30
0.0
  9
$UCSYDIR
 10
0.0
 20
1.0
 30
0.0
  9
$UCSORTHOREF
  2

  9
$UCSORTHOVIEW
 70
0
  9
$UCSORGTOP
 10
0.0
 20
0.0
 30
0.0
  9
$UCSORGBOTTOM
 10
0.0
 20
0.0
 30
0.0
  9
$UCSORGLEFT
 10
0.0
 20
0.0
 30
0.0
  9
$UCSORGRIGHT
 10
0.0
 20
0.0
 30
0.0
  9
$UCSORGFRONT
 10
0.0
 20
0.0
 30
0.0
  9
$UCSORGBACK
 10
0.0
 20
0.0
 30
0.0
  9
$PUCSBASE
  2

  9
$PUCSNAME
  2

  9
$PUCSORG
 10
0.0
 20
0.0
 30
0.0
  9
$PUCSXDIR
 10
1.0
 20
0.0
 30
0.0
  9
$PUCSYDIR
 10
0.0
 20
1.0
 30
0.0
  9
$PUCSORTHOREF
  2

  9
$PUCSORTHOVIEW
 70
0
  9
$PUCSORGTOP
 10
0.0
 20
0.0
 30
0.0
  9
$PUCSORGBOTTOM
 10
0.0
 20
0.0
 30
0.0
  9
$PUCSORGLEFT
 10
0.0
 20
0.0
 30
0.0
  9
$PUCSORGRIGHT
 10
0.0
 20
0.0
 30
0.0
  9
$PUCSORGFRONT
 10
0.0
 20
0.0
 30
0.0
  9
$PUCSORGBACK
 10
0.0
 20
0.0
 30
0.0
  9
$USERI1
 70
0
  9
$USERI2
 70
0
  9
$USERI3
 70
0
  9
$USERI4
 70
0
  9
$USERI5
 70
0
  9
$USERR1
 40
0.0
  9
$USERR2
 40
0.0
  9
$USERR3
 40
0.0
  9
$USERR4
 40
0.0
  9
$USERR5
 40
0.0
  9
$WORLDVIEW
 70
1
  9
$SHADEDGE
 70
3
  9
$SHADEDIF
 70
70
  9
$TILEMODE
 70
1
  9
$MAXACTVP
 70
64
  9
$PINSBASE
 10
0.0
 20
0.0
 30
0.0
  9
$PLIMCHECK
 70
0
  9
$PEXTMIN
 10
1e+20
 20
1e+20
 30
1e+20
  9
$PEXTMAX
 10
-1e+20
 20
-1e+20
 30
-1e+20
  9
$PLIMMIN
 10
0.0
 20
0.0
  9
$PLIMMAX
 10
420.0
 20
297.0
  9
$UNITMODE
 70
0
  9
$VISRETAIN
 70
1
  9
$PLINEGEN
 70
0
  9
$PSLTSCALE
 70
1
  9
$TREEDEPTH
 70
3020
  9
$CMLSTYLE
  2
Standard
  9
$CMLJUST
 70
0
  9
$CMLSCALE
 40
20.0
  9
$PROXYGRAPHICS
 70
1
  9
$MEASUREMENT
 70
1
  9
$CELWEIGHT
370
-1
  9
$ENDCAPS
280
0
  9
$JOINSTYLE
280
0
  9
$LWDISPLAY
290
0
  9
$INSUNITS
 70
6
  9
$HYPERLINKBASE
  1

  9
$STYLESHEET
  1

  9
$XEDIT
290
1
  9
$CEPSNTYPE
380
0
  9
$PSTYLEMODE
290
1
  9
$FINGERPRINTGUID
  2
{A2919095-CE00-493E-B84D-FB8851808F5C}
  9
$VERSIONGUID
  2
{9A495D84-EB40-466E-81BB-AFB56CDC9DAC}
  9
$EXTNAMES
290
1
  9
$PSVPSCALE
 40
0.0
  9
$OLESTARTUP
290
0
  9
$SORTENTS
280
127
  9
$INDEXCTL
280
0
  9
$HIDETEXT
280
1
  9
$XCLIPFRAME
280
1
  9
$HALOGAP
280
0
  9
$OBSCOLOR
 70
257
  9
$OBSLTYPE
280
0
  9
$INTERSECTIONDISPLAY
280
0
  9
$INTERSECTIONCOLOR
 70
257
  9
$DIMASSOC
280
2
  9
$PROJECTNAME
  1

  9
$CAMERADISPLAY
290
0
  9
$LENSLENGTH
 40
50.0
  9
$CAMERAHEIGHT
 40
0.0
  9
$STEPSPERSEC
 40
24.0
  9
$STEPSIZE
 40
100.0
  9
$3DDWFPREC
 40
2.0
  9
$PSOLWIDTH
 40
0.005
  9
$PSOLHEIGHT
 40
0.08
  9
$LOFTANG1
 40
1.570796326795
  9
$LOFTANG2
 40
1.570796326795
  9
$LOFTMAG1
 40
0.0
  9
$LOFTMAG2
 40
0.0
  9
$LOFTPARAM
 70
7
  9
$LOFTNORMALS
280
1
  9
$LATITUDE
 40
37.795
  9
$LONGITUDE
 40
-122.394
  9
$NORTHDIRECTION
 40
0.0
  9
$TIMEZONE
 70
-8000
  9
$LIGHTGLYPHDISPLAY
280
1
  9
$TILEMODELIGHTSYNCH
280
1
  9
$CMATERIAL
347
20
  9
$SOLIDHIST
280
0
  9
$SHOWHIST
280
1
  9
$DWFFRAME
280
2
  9
$DGNFRAME
280
2
  9
$REALWORLDSCALE
290
1
  9
$INTERFERECOLOR
 62
256
  9
$CSHADOW
280
0
  9
$SHADOWPLANELOCATION
 40
0.0
  0
ENDSEC
  0
SECTION
  2
CLASSES
  0
CLASS
  1
ACDBDICTIONARYWDFLT
  2
AcDbDictionaryWithDefault
  3
ObjectDBX Classes
 90
0
 91
0
280
0
281
0
  0
CLASS
  1
SUN
  2
AcDbSun
  3
SCENEOE
 90
1153
 91
0
280
0
281
0
  0
CLASS
  1
VISUALSTYLE
  2
AcDbVisualStyle
  3
ObjectDBX Classes
 90
4095
 91
0
280
0
281
0
  0
CLASS
  1
MATERIAL
  2
AcDbMaterial
  3
ObjectDBX Classes
 90
1153
 91
0
280
0
281
0
  0
CLASS
  1
SCALE
  2
AcDbScale
  3
ObjectDBX Classes
 90
1153
 91
0
280
0
281
0
  0
CLASS
  1
TABLESTYLE
  2
AcDbTableStyle
  3
ObjectDBX Classes
 90
4095
 91
0
280
0
281
0
  0
CLASS
  1
MLEADERSTYLE
  2
AcDbMLeaderStyle
  3
ACDB_MLEADERSTYLE_CLASS
 90
4095
 91
0
280
0
281
0
  0
CLASS
  1
DICTIONARYVAR
  2
AcDbDictionaryVar
  3
ObjectDBX Classes
 90
0
 91
0
280
0
281
0
  0
CLASS
  1
CELLSTYLEMAP
  2
AcDbCellStyleMap
  3
ObjectDBX Classes
 90
1152
 91
0
280
0
281
0
  0
CLASS
  1
MENTALRAYRENDERSETTINGS
  2
AcDbMentalRayRenderSettings
  3
SCENEOE
 90
1024
 91
0
280
0
281
0
  0
CLASS
  1
ACDBDETAILVIEWSTYLE
  2
AcDbDetailViewStyle
  3
ObjectDBX Classes
 90
1025
 91
0
280
0
281
0
  0
CLASS
  1
ACDBSECTIONVIEWSTYLE
  2
AcDbSectionViewStyle
  3
ObjectDBX Classes
 90
1025
 91
0
280
0
281
0
  0
CLASS
  1
RASTERVARIABLES
  2
AcDbRasterVariables
  3
ISM
 90
0
 91
0
280
0
281
0
  0
CLASS
  1
ACDBPLACEHOLDER
  2
AcDbPlaceHolder
  3
ObjectDBX Classes
 90
0
 91
0
280
0
281
0
  0
CLASS
  1
LAYOUT
  2
AcDbLayout
  3
ObjectDBX Classes
 90
0
 91
0
280
0
281
0
  0
ENDSEC
  0
SECTION
  2
TABLES
  0
TABLE
  2
VPORT
  5
8
330
0
100
AcDbSymbolTable
 70
1
  0
VPORT
  5
23
330
8
100
AcDbSymbolTableRecord
100
AcDbViewportTableRecord
  2
*Active
 70
0
 10
0.0
 20
0.0
 11
1.0
 21
1.0
 12
0.0
 22
0.0
 13
0.0
 23
0.0
 14
0.5
 24
0.5
 15
0.5
 25
0.5
 16
0.0
 26
0.0
 36
1.0
 17
0.0
 27
0.0
 37
0.0
 40
1000.0
 41
1.34
 42
50.0
 43
0.0
 44
0.0
 50
0.0
 51
0.0
 71
0
 72
1000
 73
1
 74
3
 75
0
 76
0
 77
0
 78
0
281
0
 65
0
146
0.0
  0
ENDTAB
  0
TABLE
  2
LTYPE
  5
2
330
0
100
AcDbSymbolTable
 70
3
  0
LTYPE
  5
24
330
2
100
AcDbSymbolTableRecord
100
AcDbLinetypeTableRecord
  2
ByBlock
 70
0
  3

 72
65
 73
0
 40
0.0
  0
LTYPE
  5
25
330
2
100
AcDbSymbolTableRecord
100
AcDbLinetypeTableRecord
  2
ByLayer
 70
0
  3

 72
65
 73
0
 40
0.0
  0
LTYPE
  5
26
330
2
100
AcDbSymbolTableRecord
100
AcDbLinetypeTableRecord
  2
Continuous
 70
0
  3

 72
65
 73
0
 40
0.0
  0
ENDTAB
  0
TABLE
  2
LAYER
  5
1
330
0
100
AcDbSymbolTable
 70
6
  0
LAYER
  5
27
330
1
100
AcDbSymbolTableRecord
100
AcDbLayerTableRecord
  2
0
 70
0
 62
7
  6
Continuous
370
-3
390
13
347
21
  0
LAYER
  5
28
330
1
100
AcDbSymbolTableRecord
100
AcDbLayerTableRecord
  2
Defpoints
 70
0
 62
7
  6
Continuous
290
0
370
-3
390
13
347
21
  0
LAYER
  5
2F
330
1
100
AcDbSymbolTableRecord
100
AcDbLayerTableRecord
  2
CONTOUR
 70
0
 62
3
  6
Continuous
370
-3
390
13
347
21
  0
LAYER
  5
30
330
1
100
AcDbSymbolTableRecord
100
AcDbLayerTableRecord
  2
TEXT
 70
0
 62
1
  6
Continuous
370
-3
390
13
347
21
  0
LAYER
  5
31
330
1
100
AcDbSymbolTableRecord
100
AcDbLayerTableRecord
  2
BOUNDARY
 70
0
 62
6
  6
Continuous
370
-3
390
13
347
21
  0
LAYER
  5
32
330
1
100
AcDbSymbolTableRecord
100
AcDbLayerTableRecord
  2
DIMENSION
 70
0
 62
4
  6
Continuous
370
-3
390
13
347
21
  0
ENDTAB
  0
TABLE
  2
STYLE
  5
5
330
0
100
AcDbSymbolTable
 70
1
  0
STYLE
  5
29
330
5
100
AcDbSymbolTableRecord
100
AcDbTextStyleTableRecord
  2
Standard
 70
0
 40
0.0
 41
1.0
 50
0.0
 71
0
 42
2.5
  3
txt
  4

  0
ENDTAB
  0
TABLE
  2
VIEW
  5
7
330
0
100
AcDbSymbolTable
 70
0
  0
ENDTAB
  0
TABLE
  2
UCS
  5
6
330
0
100
AcDbSymbolTable
 70
0
  0
ENDTAB
  0
TABLE
  2
APPID
  5
3
330
0
100
AcDbSymbolTable
 70
3
  0
APPID
  5
2A
330
3
100
AcDbSymbolTableRecord
100
AcDbRegAppTableRecord
  2
ACAD
 70
0
  0
APPID
  5
62
330
3
100
AcDbSymbolTableRecord
100
AcDbRegAppTableRecord
  2
HATCHBACKGROUNDCOLOR
 70
0
  0
APPID
  5
63
330
3
100
AcDbSymbolTableRecord
100
AcDbRegAppTableRecord
  2
EZDXF
 70
0
  0
ENDTAB
  0
TABLE
  2
DIMSTYLE
  5
4
330
0
100
AcDbSymbolTable
 70
1
100
AcDbDimStyleTable
  0
DIMSTYLE
105
2B
330
4
100
AcDbSymbolTableRecord
100
AcDbDimStyleTableRecord
  2
Standard
 70
0
 40
1.0
 41
2.5
 42
0.625
 43
3.75
 44
1.25
 45
0.0
 46
0.0
 47
0.0
 48
0.0
 49
2.5
140
2.5
141
2.5
142
0.0
143
0.03937007874
144
1.0
145
0.0
146
1.0
147
0.625
148
0.0
 69
0
 70
0
 71
0
 72
0
 73
0
 74
0
 75
0
 76
0
 77
1
 78
8
 79
3
170
0
171
3
172
1
173
0
174
0
175
0
176
0
177
0
178
0
179
2
271
2
272
2
273
2
274
3
275
0
276
0
277
2
278
44
279
0
280
0
281
0
282
0
283
0
284
8
285
0
286
0
288
0
289
3
290
0
371
-2
372
-2
  0
ENDTAB
  0
TABLE
  2
BLOCK_RECORD
  5
9
330
0
100
AcDbSymbolTable
 70
2
  0
BLOCK_RECORD
  5
17
330
9
100
AcDbSymbolTableRecord
100
AcDbBlockTableRecord
  2
*Model_Space
340
1A
 70
0
280
1
281
0
  0
BLOCK_RECORD
  5
1B
330
9
100
AcDbSymbolTableRecord
100
AcDbBlockTableRecord
  2
*Paper_Space
340
1E
 70
0
280
1
281
0
  0
ENDTAB
  0
ENDSEC
  0
SECTION
  2
BLOCKS
  0
BLOCK
  5
18
330
17
100
AcDbEntity
  8
0
100
AcDbBlockBegin
  2
*Model_Space
 70
0
 10
0.0
 20
0.0
 30
0.0
  3
*Model_Space
  1

  0
ENDBLK
  5
19
330
17
100
AcDbEntity
  8
0
100
AcDbBlockEnd
  0
BLOCK
  5
1C
330
1B
100
AcDbEntity
  8
0
100
AcDbBlockBegin
  2
*Paper_Space
 70
0
 10
0.0
 20
0.0
 30
0.0
  3
*Paper_Space
  1

  0
ENDBLK
  5
1D
330
1B
100
AcDbEntity
  8
0
100
AcDbBlockEnd
  0
ENDSEC
  0
SECTION
  2
ENTITIES
  0
LWPOLYLINE
  5
33
330
17
100
AcDbEntity
  8
BOUNDARY
  6
DASHED
100
AcDbPolyline
 90
5
 70
0
 10
0.0
 20
0.0
 10
100.0
 20
0.0
 10
100.0
 20
100.0
 10
0.0
 20
100.0
 10
0.0
 20
0.0
  0
LINE
  5
34
330
17
100
AcDbEntity
  8
DIMENSION
370
18
100
AcDbLine
 10
0.0
 20
0.0
 30
0.0
 11
0.0
 21
100.0
 31
0.0
  0
LINE
  5
35
330
17
100
AcDbEntity
  8
DIMENSION
370
18
100
AcDbLine
 10
10.0
 20
0.0
 30
0.0
 11
10.0
 21
100.0
 31
0.0
  0
LINE
  5
36
330
17
100
AcDbEntity
  8
DIMENSION
370
18
100
AcDbLine
 10
20.0
 20
0.0
 30
0.0
 11
20.0
 21
100.0
 31
0.0
  0
LINE
  5
37
330
17
100
AcDbEntity
  8
DIMENSION
370
18
100
AcDbLine
 10
30.0
 20
0.0
 30
0.0
 11
30.0
 21
100.0
 31
0.0
  0
LINE
  5
38
330
17
100
AcDbEntity
  8
DIMENSION
370
18
100
AcDbLine
 10
40.0
 20
0.0
 30
0.0
 11
40.0
 21
100.0
 31
0.0
  0
LINE
  5
39
330
17
100
AcDbEntity
  8
DIMENSION
370
18
100
AcDbLine
 10
50.0
 20
0.0
 30
0.0
 11
50.0
 21
100.0
 31
0.0
  0
LINE
  5
3A
330
17
100
AcDbEntity
  8
DIMENSION
370
18
100
AcDbLine
 10
60.0
 20
0.0
 30
0.0
 11
60.0
 21
100.0
 31
0.0
  0
LINE
  5
3B
330
17
100
AcDbEntity
  8
DIMENSION
370
18
100
AcDbLine
 10
70.0
 20
0.0
 30
0.0
 11
70.0
 21
100.0
 31
0.0
  0
LINE
  5
3C
330
17
100
AcDbEntity
  8
DIMENSION
370
18
100
AcDbLine
 10
80.0
 20
0.0
 30
0.0
 11
80.0
 21
100.0
 31
0.0
  0
LINE
  5
3D
330
17
100
AcDbEntity
  8
DIMENSION
370
18
100
AcDbLine
 10
90.0
 20
0.0
 30
0.0
 11
90.0
 21
100.0
 31
0.0
  0
LINE
  5
3E
330
17
100
AcDbEntity
  8
DIMENSION
370
18
100
AcDbLine
 10
100.0
 20
0.0
 30
0.0
 11
100.0
 21
100.0
 31
0.0
  0
LINE
  5
3F
330
17
100
AcDbEntity
  8
DIMENSION
370
18
100
AcDbLine
 10
0.0
 20
0.0
 30
0.0
 11
100.0
 21
0.0
 31
0.0
  0
LINE
  5
40
330
17
100
AcDbEntity
  8
DIMENSION
370
18
100
AcDbLine
 10
0.0
 20
10.0
 30
0.0
 11
100.0
 21
10.0
 31
0.0
  0
LINE
  5
41
330
17
100
AcDbEntity
  8
DIMENSION
370
18
100
AcDbLine
 10
0.0
 20
20.0
 30
0.0
 11
100.0
 21
20.0
 31
0.0
  0
LINE
  5
42
330
17
100
AcDbEntity
  8
DIMENSION
370
18
100
AcDbLine
 10
0.0
 20
30.0
 30
0.0
 11
100.0
 21
30.0
 31
0.0
  0
LINE
  5
43
330
17
100
AcDbEntity
  8
DIMENSION
370
18
100
AcDbLine
 10
0.0
 20
40.0
 30
0.0
 11
100.0
 21
40.0
 31
0.0
  0
LINE
  5
44
330
17
100
AcDbEntity
  8
DIMENSION
370
18
100
AcDbLine
 10
0.0
 20
50.0
 30
0.0
 11
100.0
 21
50.0
 31
0.0
  0
LINE
  5
45
330
17
100
AcDbEntity
  8
DIMENSION
370
18
100
AcDbLine
 10
0.0
 20
60.0
 30
0.0
 11
100.0
 21
60.0
 31
0.0
  0
LINE
  5
46
330
17
100
AcDbEntity
  8
DIMENSION
370
18
100
AcDbLine
 10
0.0
 20
70.0
 30
0.0
 11
100.0
 21
70.0
 31
0.0
  0
LINE
  5
47
330
17
100
AcDbEntity
  8
DIMENSION
370
18
100
AcDbLine
 10
0.0
 20
80.0
 30
0.0
 11
100.0
 21
80.0
 31
0.0
  0
LINE
  5
48
330
17
100
AcDbEntity
  8
DIMENSION
370
18
100
AcDbLine
 10
0.0
 20
90.0
 30
0.0
 11
100.0
 21
90.0
 31
0.0
  0
LINE
  5
49
330
17
100
AcDbEntity
  8
DIMENSION
370
18
100
AcDbLine
 10
0.0
 20
100.0
 30
0.0
 11
100.0
 21
100.0
 31
0.0
  0
LWPOLYLINE
  5
4A
330
17
100
AcDbEntity
  8
CONTOUR
100
AcDbPolyline
 90
36
 70
0
 38
100.0
 10
100.0
 20
50.0
 10
99.2403876506104
 20
58.68240888334652
 10
96.98463103929542
 20
67.10100716628344
 10
93.30127018922194
 20
75.0
 10
88.3022221559489
 20
82.13938048432696
 10
82.13938048432698
 20
88.3022221559489
 10
75.0
 20
93.30127018922192
 10
67.10100716628344
 20
96.98463103929541
 10
58.68240888334652
 20
99.2403876506104
 10
50.0
 20
100.0
 10
41.31759111665349
 20
99.2403876506104
 10
32.89899283371656
 20
96.98463103929542
 10
25.00000000000001
 20
93.30127018922194
 10
17.86061951567303
 20
88.3022221559489
 10
11.697777844051103
 20
82.13938048432698
 10
6.698729810778062
 20
75.0
 10
3.015368960704585
 20
67.10100716628344
 10
0.7596123493895988
 20
58.68240888334651
 10
0.0
 20
50.00000000000001
 10
0.7596123493895988
 20
41.317591116653475
 10
3.0153689607045777
 20
32.89899283371656
 10
6.698729810778069
 20
24.999999999999993
 10
11.697777844051096
 20
17.860619515673037
 10
17.86061951567303
 20
11.697777844051103
 10
24.99999999999998
 20
6.698729810778083
 10
32.89899283371658
 20
3.0153689607045777
 10
41.31759111665348
 20
0.7596123493895988
 10
49.99999999999999
 20
0.0
 10
58.6824088833465
 20
0.7596123493895917
 10
67.10100716628345
 20
3.015368960704585
 10
75.0
 20
6.698729810778069
 10
82.13938048432696
 20
11.697777844051096
 10
88.3022221559489
 20
17.860619515673022
 10
93.30127018922192
 20
24.99999999999998
 10
96.98463103929542
 20
32.89899283371657
 10
99.2403876506104
 20
41.31759111665348
  0
TEXT
  5
4B
330
17
100
AcDbEntity
  8
TEXT
100
AcDbText
 10
0.0
 20
50.00000000000001
 30
0.0
 40
0.5
  1
100m
 11
0.0
 21
50.00000000000001
 31
0.0
100
AcDbText
  0
LWPOLYLINE
  5
4C
330
17
100
AcDbEntity
  8
CONTOUR
100
AcDbPolyline
 90
36
 70
0
 38
105.0
 10
96.0
 20
50.0
 10
95.30115663856157
 20
57.9878161726788
 10
93.22586055615179
 20
65.73292659298076
 10
89.83716857408419
 20
73.0
 10
85.23804438347298
 20
79.5682300455808
 10
79.5682300455808
 20
85.23804438347298
 10
73.0
 20
89.83716857408417
 10
65.73292659298076
 20
93.22586055615179
 10
57.9878161726788
 20
95.30115663856157
 10
50.0
 20
96.0
 10
42.01218382732121
 20
95.30115663856157
 10
34.26707340701924
 20
93.22586055615179
 10
27.00000000000001
 20
89.83716857408419
 10
20.431769954419188
 20
85.23804438347298
 10
14.761955616527018
 20
79.56823004558082
 10
10.162831425915819
 20
73.0
 10
6.77413944384822
 20
65.73292659298076
 10
4.698843361438428
 20
57.98781617267879
 10
4.0
 20
50.00000000000001
 10
4.698843361438428
 20
42.012183827321195
 10
6.774139443848213
 20
34.26707340701924
 10
10.162831425915826
 20
26.999999999999996
 10
14.761955616527011
 20
20.431769954419195
 10
20.431769954419185
 20
14.761955616527018
 10
26.99999999999998
 20
10.162831425915833
 10
34.26707340701925
 20
6.774139443848213
 10
42.0121838273212
 20
4.698843361438428
 10
49.99999999999999
 20
4.0
 10
57.98781617267878
 20
4.698843361438428
 10
65.73292659298077
 20
6.77413944384822
 10
73.0
 20
10.162831425915826
 10
79.5682300455808
 20
14.761955616527004
 10
85.23804438347298
 20
20.431769954419178
 10
89.83716857408416
 20
26.99999999999998
 10
93.22586055615179
 20
34.26707340701925
 10
95.30115663856157
 20
42.0121838273212
  0
TEXT
  5
4D
330
17
100
AcDbEntity
  8
TEXT
100
AcDbText
 10
4.0
 20
50.00000000000001
 30
0.0
 40
0.5
  1
105m
 11
4.0
 21
50.00000000000001
 31
0.0
100
AcDbText
  0
LWPOLYLINE
  5
4E
330
17
100
AcDbEntity
  8
CONTOUR
100
AcDbPolyline
 90
36
 70
0
 38
110.0
 10
92.0
 20
50.0
 10
91.36192562651274
 20
57.29322346201107
 10
89.46709007300815
 20
64.36484601967808
 10
86.37306695894642
 20
71.0
 10
82.17386661099707
 20
76.99707960683465
 10
76.99707960683466
 20
82.17386661099707
 10
71.0
 20
86.37306695894642
 10
64.36484601967808
 20
89.46709007300815
 10
57.29322346201108
 20
91.36192562651274
 10
50.0
 20
92.0
 10
42.70677653798893
 20
91.36192562651274
 10
35.63515398032192
 20
89.46709007300815
 10
29.00000000000001
 20
86.37306695894642
 10
23.002920393165347
 20
82.17386661099707
 10
17.826133389002926
 20
76.99707960683466
 10
13.626933041053576
 20
71.0
 10
10.532909926991849
 20
64.3648460196781
 10
8.638074373487264
 20
57.29322346201107
 10
8.0
 20
50.00000000000001
 10
8.638074373487264
 20
42.70677653798892
 10
10.532909926991849
 20
35.63515398032192
 10
13.626933041053576
 20
28.999999999999996
 10
17.826133389002926
 20
23.00292039316535
 10
23.002920393165343
 20
17.826133389002926
 10
28.999999999999982
 20
13.62693304105359
 10
35.63515398032192
 20
10.532909926991849
 10
42.70677653798893
 20
8.638074373487264
 10
49.99999999999999
 20
8.0
 10
57.293223462011056
 20
8.638074373487257
 10
64.3648460196781
 20
10.532909926991849
 10
71.0
 20
13.626933041053576
 10
76.99707960683465
 20
17.82613338900292
 10
82.17386661099707
 20
23.002920393165336
 10
86.37306695894641
 20
28.999999999999982
 10
89.46709007300815
 20
35.63515398032192
 10
91.36192562651274
 20
42.70677653798892
  0
TEXT
  5
4F
330
17
100
AcDbEntity
  8
TEXT
100
AcDbText
 10
8.0
 20
50.00000000000001
 30
0.0
 40
0.5
  1
110m
 11
8.0
 21
50.00000000000001
 31
0.0
100
AcDbText
  0
LWPOLYLINE
  5
50
330
17
100
AcDbEntity
  8
CONTOUR
100
AcDbPolyline
 90
36
 70
0
 38
115.0
 10
88.0
 20
50.0
 10
87.42269461446391
 20
56.59863075134335
 10
85.70831958986452
 20
62.99676544637541
 10
82.90896534380867
 20
69.0
 10
79.10968883852117
 20
74.42592916808849
 10
74.42592916808849
 20
79.10968883852117
 10
69.0
 20
82.90896534380866
 10
62.99676544637541
 20
85.70831958986452
 10
56.59863075134336
 20
87.42269461446391
 10
50.0
 20
88.0
 10
43.40136924865665
 20
87.42269461446391
 10
37.00323455362459
 20
85.70831958986452
 10
31.000000000000007
 20
82.90896534380867
 10
25.574070831911506
 20
79.10968883852117
 10
20.89031116147884
 20
74.4259291680885
 10
17.091034656191326
 20
69.0
 10
14.291680410135484
 20
62.99676544637542
 10
12.577305385536093
 20
56.59863075134335
 10
12.0
 20
50.00000000000001
 10
12.577305385536093
 20
43.40136924865664
 10
14.291680410135477
 20
37.003234553624594
 10
17.091034656191333
 20
30.999999999999996
 10
20.890311161478834
 20
25.57407083191151
 10
25.5740708319115
 20
20.89031116147884
 10
30.999999999999982
 20
17.09103465619134
 10
37.003234553624594
 20
14.291680410135477
 10
43.40136924865665
 20
12.577305385536093
 10
49.99999999999999
 20
12.0
 10
56.598630751343336
 20
12.577305385536093
 10
62.99676544637542
 20
14.291680410135484
 10
69.0
 20
17.091034656191333
 10
74.42592916808849
 20
20.89031116147883
 10
79.10968883852115
 20
25.574070831911495
 10
82.90896534380866
 20
30.999999999999982
 10
85.70831958986452
 20
37.003234553624594
 10
87.42269461446391
 20
43.40136924865664
  0
TEXT
  5
51
330
17
100
AcDbEntity
  8
TEXT
100
AcDbText
 10
12.0
 20
50.00000000000001
 30
0.0
 40
0.5
  1
115m
 11
12.0
 21
50.00000000000001
 31
0.0
100
AcDbText
  0
LWPOLYLINE
  5
52
330
17
100
AcDbEntity
  8
CONTOUR
100
AcDbPolyline
 90
36
 70
0
 38
120.0
 10
84.0
 20
50.0
 10
83.48346360241507
 20
55.90403804067563
 10
81.9495491067209
 20
61.628684873072736
 10
79.44486372867092
 20
67.0
 10
76.04551106604525
 20
71.85477872934234
 10
71.85477872934234
 20
76.04551106604525
 10
67.0
 20
79.44486372867091
 10
61.62868487307274
 20
81.94954910672088
 10
55.90403804067564
 20
83.48346360241507
 10
50.0
 20
84.0
 10
44.09596195932437
 20
83.48346360241507
 10
38.371315126927264
 20
81.9495491067209
 10
33.00000000000001
 20
79.44486372867092
 10
28.14522127065766
 20
76.04551106604525
 10
23.95448893395475
 20
71.85477872934234
 10
20.555136271329083
 20
67.0
 10
18.050450893279116
 20
61.62868487307274
 10
16.51653639758493
 20
55.90403804067563
 10
16.0
 20
50.00000000000001
 10
16.51653639758493
 20
44.09596195932436
 10
18.050450893279113
 20
38.371315126927264
 10
20.555136271329086
 20
33.0
 10
23.954488933954746
 20
28.145221270657665
 10
28.145221270657657
 20
23.95448893395475
 10
32.999999999999986
 20
20.555136271329097
 10
38.37131512692727
 20
18.050450893279113
 10
44.09596195932437
 20
16.51653639758493
 10
49.99999999999999
 20
16.0
 10
55.904038040675616
 20
16.51653639758492
 10
61.62868487307274
 20
18.050450893279116
 10
67.0
 20
20.555136271329086
 10
71.85477872934234
 20
23.954488933954742
 10
76.04551106604524
 20
28.145221270657654
 10
79.4448637286709
 20
32.999999999999986
 10
81.9495491067209
 20
38.37131512692727
 10
83.48346360241507
 20
44.09596195932437
  0
TEXT
  5
53
330
17
100
AcDbEntity
  8
TEXT
100
AcDbText
 10
16.0
 20
50.00000000000001
 30
0.0
 40
0.5
  1
120m
 11
16.0
 21
50.00000000000001
 31
0.0
100
AcDbText
  0
LWPOLYLINE
  5
54
330
17
100
AcDbEntity
  8
CONTOUR
100
AcDbPolyline
 90
36
 70
0
 38
125.0
 10
80.0
 20
50.0
 10
79.54423259036625
 20
55.20944533000791
 10
78.19077862357724
 20
60.260604299770065
 10
75.98076211353316
 20
65.0
 10
72.98133329356934
 20
69.28362829059617
 10
69.28362829059618
 20
72.98133329356934
 10
65.0
 20
75.98076211353316
 10
60.260604299770065
 20
78.19077862357724
 10
55.20944533000791
 20
79.54423259036625
 10
50.0
 20
80.0
 10
44.79055466999209
 20
79.54423259036625
 10
39.739395700229935
 20
78.19077862357724
 10
35.00000000000001
 20
75.98076211353316
 10
30.71637170940382
 20
72.98133329356934
 10
27.018666706430665
 20
69.28362829059618
 10
24.01923788646684
 20
65.0
 10
21.80922137642275
 20
60.260604299770065
 10
20.455767409633758
 20
55.20944533000791
 10
20.0
 20
50.00000000000001
 10
20.455767409633758
 20
44.79055466999208
 10
21.809221376422748
 20
39.73939570022994
 10
24.019237886466843
 20
35.0
 10
27.01866670643066
 20
30.716371709403823
 10
30.716371709403816
 20
27.018666706430665
 10
34.999999999999986
 20
24.019237886466847
 10
39.73939570022994
 20
21.809221376422748
 10
44.79055466999209
 20
20.455767409633758
 10
49.99999999999999
 20
20.0
 10
55.209445330007895
 20
20.455767409633758
 10
60.260604299770065
 20
21.80922137642275
 10
65.0
 20
24.019237886466843
 10
69.28362829059617
 20
27.018666706430658
 10
72.98133329356934
 20
30.716371709403813
 10
75.98076211353316
 20
34.999999999999986
 10
78.19077862357724
 20
39.73939570022994
 10
79.54423259036625
 20
44.79055466999209
  0
TEXT
  5
55
330
17
100
AcDbEntity
  8
TEXT
100
AcDbText
 10
20.0
 20
50.00000000000001
 30
0.0
 40
0.5
  1
125m
 11
20.0
 21
50.00000000000001
 31
0.0
100
AcDbText
  0
LWPOLYLINE
  5
56
330
17
100
AcDbEntity
  8
CONTOUR
100
AcDbPolyline
 90
36
 70
0
 38
130.0
 10
76.0
 20
50.0
 10
75.60500157831741
 20
54.51485261934019
 10
74.43200814043362
 20
58.89252372646739
 10
72.51666049839541
 20
63.0
 10
69.91715552109343
 20
66.71247785185002
 10
66.71247785185002
 20
69.91715552109343
 10
63.0
 20
72.5166604983954
 10
58.89252372646739
 20
74.43200814043362
 10
54.51485261934019
 20
75.60500157831741
 10
50.0
 20
76.0
 10
45.48514738065981
 20
75.60500157831741
 10
41.10747627353261
 20
74.43200814043362
 10
37.00000000000001
 20
72.51666049839541
 10
33.287522148149975
 20
69.91715552109343
 10
30.082844478906573
 20
66.71247785185002
 10
27.483339501604593
 20
63.0
 10
25.567991859566384
 20
58.89252372646739
 10
24.39499842168259
 20
54.51485261934019
 10
24.0
 20
50.0
 10
24.39499842168259
 20
45.48514738065981
 10
25.56799185956638
 20
41.10747627353261
 10
27.483339501604597
 20
37.0
 10
30.082844478906573
 20
33.287522148149975
 10
33.287522148149975
 20
30.082844478906573
 10
36.999999999999986
 20
27.483339501604604
 10
41.10747627353262
 20
25.56799185956638
 10
45.48514738065981
 20
24.39499842168259
 10
49.99999999999999
 20
24.0
 10
54.51485261934018
 20
24.394998421682587
 10
58.892523726467395
 20
25.567991859566384
 10
63.0
 20
27.483339501604597
 10
66.71247785185002
 20
30.08284447890657
 10
69.91715552109342
 20
33.287522148149975
 10
72.5166604983954
 20
36.999999999999986
 10
74.43200814043362
 20
41.10747627353262
 10
75.60500157831741
 20
45.48514738065981
  0
TEXT
  5
57
330
17
100
AcDbEntity
  8
TEXT
100
AcDbText
 10
24.0
 20
50.0
 30
0.0
 40
0.5
  1
130m
 11
24.0
 21
50.0
 31
0.0
100
AcDbText
  0
LWPOLYLINE
  5
58
330
17
100
AcDbEntity
  8
CONTOUR
100
AcDbPolyline
 90
36
 70
0
 38
135.0
 10
72.0
 20
50.0
 10
71.66577056626858
 20
53.82025990867247
 10
70.67323765728999
 20
57.52444315316471
 10
69.05255888325766
 20
61.0
 10
66.85297774861752
 20
64.14132741310387
 10
64.14132741310387
 20
66.85297774861752
 10
61.0
 20
69.05255888325765
 10
57.52444315316471
 20
70.67323765728999
 10
53.82025990867247
 20
71.66577056626858
 10
50.0
 20
72.0
 10
46.17974009132753
 20
71.66577056626858
 10
42.47555684683529
 20
70.67323765728999
 10
39.00000000000001
 20
69.05255888325766
 10
35.858672586896134
 20
66.85297774861752
 10
33.14702225138249
 20
64.14132741310387
 10
30.947441116742347
 20
61.0
 10
29.326762342710015
 20
57.52444315316472
 10
28.334229433731423
 20
53.82025990867247
 10
28.0
 20
50.0
 10
28.334229433731423
 20
46.17974009132753
 10
29.326762342710015
 20
42.47555684683529
 10
30.94744111674235
 20
39.0
 10
33.14702225138248
 20
35.858672586896134
 10
35.858672586896134
 20
33.14702225138249
 10
38.999999999999986
 20
30.947441116742354
 10
42.47555684683529
 20
29.326762342710015
 10
46.17974009132753
 20
28.334229433731423
 10
49.99999999999999
 20
28.0
 10
53.82025990867246
 20
28.334229433731423
 10
57.52444315316472
 20
29.326762342710015
 10
61.0
 20
30.94744111674235
 10
64.14132741310387
 20
33.14702225138248
 10
66.85297774861752
 20
35.85867258689613
 10
69.05255888325765
 20
38.999999999999986
 10
70.67323765728999
 20
42.47555684683529
 10
71.66577056626858
 20
46.17974009132753
  0
TEXT
  5
59
330
17
100
AcDbEntity
  8
TEXT
100
AcDbText
 10
28.0
 20
50.0
 30
0.0
 40
0.5
  1
135m
 11
28.0
 21
50.0
 31
0.0
100
AcDbText
  0
LWPOLYLINE
  5
5A
330
17
100
AcDbEntity
  8
CONTOUR
100
AcDbPolyline
 90
36
 70
0
 38
140.0
 10
68.0
 20
50.0
 10
67.72653955421974
 20
53.12566719800475
 10
66.91446717414635
 20
56.156362579862034
 10
65.5884572681199
 20
59.0
 10
63.788799976141604
 20
61.57017697435771
 10
61.57017697435771
 20
63.788799976141604
 10
59.0
 20
65.5884572681199
 10
56.15636257986204
 20
66.91446717414635
 10
53.12566719800475
 20
67.72653955421974
 10
50.0
 20
68.0
 10
46.87433280199525
 20
67.72653955421974
 10
43.843637420137966
 20
66.91446717414635
 10
41.0
 20
65.5884572681199
 10
38.42982302564229
 20
63.788799976141604
 10
36.211200023858396
 20
61.57017697435771
 10
34.411542731880104
 20
59.0
 10
33.08553282585365
 20
56.15636257986204
 10
32.27346044578026
 20
53.12566719800475
 10
32.0
 20
50.0
 10
32.27346044578026
 20
46.87433280199525
 10
33.08553282585365
 20
43.843637420137966
 10
34.411542731880104
 20
41.0
 10
36.211200023858396
 20
38.42982302564229
 10
38.42982302564229
 20
36.211200023858396
 10
40.99999999999999
 20
34.41154273188011
 10
43.843637420137966
 20
33.08553282585365
 10
46.87433280199525
 20
32.27346044578026
 10
50.0
 20
32.0
 10
53.12566719800474
 20
32.27346044578025
 10
56.15636257986204
 20
33.08553282585365
 10
59.0
 20
34.411542731880104
 10
61.57017697435771
 20
36.211200023858396
 10
63.788799976141604
 20
38.429823025642285
 10
65.5884572681199
 20
40.99999999999999
 10
66.91446717414635
 20
43.843637420137966
 10
67.72653955421974
 20
46.87433280199525
  0
TEXT
  5
5B
330
17
100
AcDbEntity
  8
TEXT
100
AcDbText
 10
32.0
 20
50.0
 30
0.0
 40
0.5
  1
140m
 11
32.0
 21
50.0
 31
0.0
100
AcDbText
  0
LWPOLYLINE
  5
5C
330
17
100
AcDbEntity
  8
CONTOUR
100
AcDbPolyline
 90
36
 70
0
 38
145.0
 10
64.0
 20
50.0
 10
63.78730854217091
 20
52.43107448733703
 10
63.15569669100272
 20
54.78828200655936
 10
62.124355652982146
 20
57.0
 10
60.72462220366569
 20
58.99902653561155
 10
58.99902653561155
 20
60.72462220366569
 10
57.0
 20
62.12435565298214
 10
54.78828200655936
 20
63.15569669100272
 10
52.43107448733703
 20
63.78730854217091
 10
50.0
 20
64.0
 10
47.56892551266298
 20
63.78730854217091
 10
45.21171799344064
 20
63.15569669100272
 10
43.0
 20
62.124355652982146
 10
41.00097346438845
 20
60.72462220366569
 10
39.27537779633431
 20
58.99902653561155
 10
37.875644347017854
 20
57.0
 10
36.84430330899728
 20
54.78828200655936
 10
36.21269145782909
 20
52.43107448733702
 10
36.0
 20
50.0
 10
36.21269145782909
 20
47.56892551266297
 10
36.84430330899728
 20
45.21171799344064
 10
37.87564434701786
 20
43.0
 10
39.27537779633431
 20
41.00097346438845
 10
41.00097346438845
 20
39.27537779633431
 10
42.99999999999999
 20
37.87564434701786
 10
45.211717993440644
 20
36.84430330899728
 10
47.56892551266297
 20
36.21269145782909
 10
50.0
 20
36.0
 10
52.43107448733702
 20
36.21269145782909
 10
54.78828200655936
 20
36.84430330899728
 10
57.0
 20
37.87564434701786
 10
58.99902653561155
 20
39.275377796334304
 10
60.72462220366569
 20
41.000973464388444
 10
62.12435565298214
 20
42.99999999999999
 10
63.15569669100272
 20
45.21171799344064
 10
63.78730854217091
 20
47.56892551266297
  0
TEXT
  5
5D
330
17
100
AcDbEntity
  8
TEXT
100
AcDbText
 10
36.0
 20
50.0
 30
0.0
 40
0.5
  1
145m
 11
36.0
 21
50.0
 31
0.0
100
AcDbText
  0
LWPOLYLINE
  5
5E
330
17
100
AcDbEntity
  8
BOUNDARY
100
AcDbPolyline
 90
5
 70
0
 10
0.0
 20
0.0
 10
100.0
 20
0.0
 10
100.0
 20
20.0
 10
0.0
 20
20.0
 10
0.0
 20
0.0
  0
TEXT
  5
5F
330
17
100
AcDbEntity
  8
TEXT
100
AcDbText
 10
50.0
 20
15.0
 30
0.0
 40
2.5
  1
示例地形图
 11
50.0
 21
15.0
 31
0.0
100
AcDbText
  0
TEXT
  5
60
330
17
100
AcDbEntity
  8
TEXT
100
AcDbText
 10
10.0
 20
10.0
 30
0.0
 40
1.5
  1
比例：1:500
 11
10.0
 21
10.0
 31
0.0
100
AcDbText
  0
TEXT
  5
61
330
17
100
AcDbEntity
  8
TEXT
100
AcDbText
 10
10.0
 20
5.0
 30
0.0
 40
1.5
  1
日期：2026-03-22
 11
10.0
 21
5.0
 31
0.0
100
AcDbText
  0
ENDSEC
  0
SECTION
  2
OBJECTS
  0
DICTIONARY
  5
A
330
0
100
AcDbDictionary
281
1
  3
ACAD_COLOR
350
B
  3
ACAD_GROUP
350
C
  3
ACAD_LAYOUT
350
D
  3
ACAD_MATERIAL
350
E
  3
ACAD_MLEADERSTYLE
350
F
  3
ACAD_MLINESTYLE
350
10
  3
ACAD_PLOTSETTINGS
350
11
  3
ACAD_PLOTSTYLENAME
350
12
  3
ACAD_SCALELIST
350
14
  3
ACAD_TABLESTYLE
350
15
  3
ACAD_VISUALSTYLE
350
16
  3
EZDXF_META
350
2D
  0
DICTIONARY
  5
B
330
A
100
AcDbDictionary
281
1
  0
DICTIONARY
  5
C
330
A
100
AcDbDictionary
281
1
  0
DICTIONARY
  5
D
330
A
100
AcDbDictionary
281
1
  3
Model
350
1A
  3
Layout1
350
1E
  0
DICTIONARY
  5
E
330
A
100
AcDbDictionary
281
1
  3
ByBlock
350
1F
  3
ByLayer
350
20
  3
Global
350
21
  0
DICTIONARY
  5
F
330
A
100
AcDbDictionary
281
1
  3
Standard
350
2C
  0
DICTIONARY
  5
10
330
A
100
AcDbDictionary
281
1
  3
Standard
350
22
  0
DICTIONARY
  5
11
330
A
100
AcDbDictionary
281
1
  0
ACDBDICTIONARYWDFLT
  5
12
330
A
100
AcDbDictionary
281
1
  3
Normal
350
13
100
AcDbDictionaryWithDefault
340
13
  0
ACDBPLACEHOLDER
  5
13
330
12
  0
DICTIONARY
  5
14
330
A
100
AcDbDictionary
281
1
  0
DICTIONARY
  5
15
330
A
100
AcDbDictionary
281
1
  0
DICTIONARY
  5
16
330
A
100
AcDbDictionary
281
1
  0
LAYOUT
  5
1A
330
D
100
AcDbPlotSettings
  1

  4
A3
  6

 40
7.5
 41
20.0
 42
7.5
 43
20.0
 44
420.0
 45
297.0
 46
0.0
 47
0.0
 48
0.0
 49
0.0
140
0.0
141
0.0
142
1.0
143
1.0
 70
1024
 72
1
 73
0
 74
5
  7

 75
16
 76
0
 77
2
 78
300
147
1.0
148
0.0
149
0.0
100
AcDbLayout
  1
Model
 70
1
 71
0
 10
0.0
 20
0.0
 11
420.0
 21
297.0
 12
0.0
 22
0.0
 32
0.0
 14
1e+20
 24
1e+20
 34
1e+20
 15
-1e+20
 25
-1e+20
 35
-1e+20
146
0.0
 13
0.0
 23
0.0
 33
0.0
 16
1.0
 26
0.0
 36
0.0
 17
0.0
 27
1.0
 37
0.0
 76
1
330
17
  0
LAYOUT
  5
1E
330
D
100
AcDbPlotSettings
  1

  4
A3
  6

 40
7.5
 41
20.0
 42
7.5
 43
20.0
 44
420.0
 45
297.0
 46
0.0
 47
0.0
 48
0.0
 49
0.0
140
0.0
141
0.0
142
1.0
143
1.0
 70
0
 72
1
 73
0
 74
5
  7

 75
16
 76
0
 77
2
 78
300
147
1.0
148
0.0
149
0.0
100
AcDbLayout
  1
Layout1
 70
1
 71
1
 10
0.0
 20
0.0
 11
420.0
 21
297.0
 12
0.0
 22
0.0
 32
0.0
 14
1e+20
 24
1e+20
 34
1e+20
 15
-1e+20
 25
-1e+20
 35
-1e+20
146
0.0
 13
0.0
 23
0.0
 33
0.0
 16
1.0
 26
0.0
 36
0.0
 17
0.0
 27
1.0
 37
0.0
 76
1
330
1B
  0
MATERIAL
  5
1F
102
{ACAD_REACTORS
330
E
102
}
330
E
100
AcDbMaterial
  1
ByBlock
  2

 70
0
 40
1.0
 71
1
 41
1.0
 91
-1023410177
 42
1.0
 72
1
  3

 73
1
 74
1
 75
1
 44
0.5
 73
0
 45
1.0
 46
1.0
 77
1
  4

 78
1
 79
1
170
1
 48
1.0
171
1
  6

172
1
173
1
174
1
140
1.0
141
1.0
175
1
  7

176
1
177
1
178
1
143
1.0
179
1
  8

270
1
271
1
272
1
145
1.0
146
1.0
273
1
  9

274
1
275
1
276
1
 42
1.0
 72
1
  3

 73
1
 74
1
 75
1
 94
63
  0
MATERIAL
  5
20
102
{ACAD_REACTORS
330
E
102
}
330
E
100
AcDbMaterial
  1
ByLayer
  2

 70
0
 40
1.0
 71
1
 41
1.0
 91
-1023410177
 42
1.0
 72
1
  3

 73
1
 74
1
 75
1
 44
0.5
 73
0
 45
1.0
 46
1.0
 77
1
  4

 78
1
 79
1
170
1
 48
1.0
171
1
  6

172
1
173
1
174
1
140
1.0
141
1.0
175
1
  7

176
1
177
1
178
1
143
1.0
179
1
  8

270
1
271
1
272
1
145
1.0
146
1.0
273
1
  9

274
1
275
1
276
1
 42
1.0
 72
1
  3

 73
1
 74
1
 75
1
 94
63
  0
MATERIAL
  5
21
102
{ACAD_REACTORS
330
E
102
}
330
E
100
AcDbMaterial
  1
Global
  2

 70
0
 40
1.0
 71
1
 41
1.0
 91
-1023410177
 42
1.0
 72
1
  3

 73
1
 74
1
 75
1
 44
0.5
 73
0
 45
1.0
 46
1.0
 77
1
  4

 78
1
 79
1
170
1
 48
1.0
171
1
  6

172
1
173
1
174
1
140
1.0
141
1.0
175
1
  7

176
1
177
1
178
1
143
1.0
179
1
  8

270
1
271
1
272
1
145
1.0
146
1.0
273
1
  9

274
1
275
1
276
1
 42
1.0
 72
1
  3

 73
1
 74
1
 75
1
 94
63
  0
MLINESTYLE
  5
22
102
{ACAD_REACTORS
330
10
102
}
330
10
100
AcDbMlineStyle
  2
Standard
 70
0
  3

 62
256
 51
90.0
 52
90.0
 71
2
 49
0.5
 62
256
  6
BYLAYER
 49
-0.5
 62
256
  6
BYLAYER
  0
MLEADERSTYLE
  5
2C
102
{ACAD_REACTORS
330
F
102
}
330
F
100
AcDbMLeaderStyle
179
2
170
2
171
1
172
0
 90
2
 40
0.0
 41
0.0
173
1
 91
-1056964608
 92
-2
290
1
 42
2.0
291
1
 43
8.0
  3
Standard
 44
4.0
300

342
29
174
1
175
1
176
0
178
1
 93
-1056964608
 45
4.0
292
0
297
0
 46
4.0
 94
-1056964608
 47
1.0
 49
1.0
140
1.0
294
1
141
0.0
177
0
142
1.0
295
0
296
0
143
3.75
271
0
272
9
273
9
  0
DICTIONARY
  5
2D
330
A
100
AcDbDictionary
280
1
281
1
  3
CREATED_BY_EZDXF
350
2E
  3
WRITTEN_BY_EZDXF
350
64
  0
DICTIONARYVAR
  5
2E
330
2D
100
DictionaryVariables
280
0
  1
1.4.3 @ 2026-03-22T04:36:56.723015+00:00
  0
DICTIONARYVAR
  5
64
330
2D
100
DictionaryVariables
280
0
  1
1.4.3 @ 2026-03-22T04:36:56.728356+00:00
  0
ENDSEC
  0
EOF
